<svg xmlns="http://www.w3.org/2000/svg" xmlns:xlink="http://www.w3.org/1999/xlink" version="1.1" x="0px" y="0px" viewBox="0 0 100 125" enable-background="new 0 0 100 100" xml:space="preserve"><g><path fill="#000000" d="M46.712,17.446h-4.729v5.308h4.729V17.446z M52.186,17.446h-4.644v5.308h4.644V17.446z M39.277,22.754   h1.877v-5.308h-1.877c-1.469,0-2.662,1.187-2.662,2.654C36.615,21.569,37.809,22.754,39.277,22.754z M63.144,20.1   c0-1.467-1.194-2.654-2.659-2.654h-1.829v5.308h1.829C61.949,22.754,63.144,21.569,63.144,20.1z M19.838,66.731v0.563   c0,2.328,0.847,5.95,1.889,8.07l7.681,15.655C30.48,93.213,33.208,95,35.485,95h29.03c2.273,0,4.995-1.787,6.071-3.979   l7.673-15.655c1.038-2.108,1.877-5.728,1.877-8.07V66.67c-5.43,3.316-14.31,5.596-30.138,5.596   C33.821,72.266,25.187,70.013,19.838,66.731z M50.071,78.533c-1.158,0-2.099-0.938-2.099-2.098c0-0.465,0.155-0.9,0.414-1.25   l2.961,2.916C50.995,78.373,50.551,78.533,50.071,78.533z M52.168,76.436c0,0.438-0.134,0.85-0.366,1.185l-2.94-2.894   c0.341-0.246,0.758-0.386,1.21-0.386C51.229,74.34,52.168,75.278,52.168,76.436z M57.743,17.446h-4.645v5.308h4.645V17.446z    M39.277,23.884h21.209c2.104,0,3.814-1.711,3.814-3.817c0-2.105-1.711-3.817-3.814-3.817H39.277c-2.105,0-3.817,1.712-3.817,3.817   C35.46,22.173,37.172,23.884,39.277,23.884z M39.277,16.827h21.209c1.788,0,3.237,1.452,3.237,3.24c0,1.79-1.449,3.239-3.237,3.239   H39.277c-1.788,0-3.239-1.45-3.239-3.239C36.037,18.279,37.489,16.827,39.277,16.827z M80.748,10.425C76.199,6.45,67.585,5,50,5   c-17.623,0-26.245,1.439-30.749,5.35c-4.421,3.84-5.166,11.245-5.166,26.394c0,15.162,0.741,22.57,5.133,26.395   c4.491,3.909,13.128,6.318,30.782,6.318c17.618,0,26.243-2.421,30.78-6.394c4.396-3.849,5.135-11.231,5.135-26.32   C85.915,21.666,85.174,14.289,80.748,10.425z M77.257,50.323c-0.419,4.543-1.218,7.244-2.516,8.504   c-3.155,3.062-13.053,3.312-24.701,3.312c-11.679,0-21.6-0.244-24.714-3.248c-1.292-1.247-2.088-3.949-2.505-8.508   c-0.338-3.686-0.406-8.173-0.406-13.775c0-5.597,0.068-10.079,0.41-13.764c0.422-4.555,1.225-7.261,2.527-8.515   c3.125-3.008,13.028-3.253,24.687-3.253c11.626,0,21.507,0.25,24.675,3.317c1.309,1.266,2.115,3.972,2.539,8.511   c0.341,3.67,0.411,8.133,0.411,13.704C77.664,42.184,77.595,46.651,77.257,50.323z M54.758,56.928h-9.456   c-0.229,0-0.415,0.187-0.415,0.415v1.91c0,0.227,0.186,0.413,0.415,0.413h9.456c0.229,0,0.412-0.185,0.412-0.413v-1.91   C55.17,57.114,54.986,56.928,54.758,56.928z M56.768,35.91c0.068,0.1,0.184,0.157,0.301,0.157c0.048,0,0.095-0.01,0.143-0.027   l3.515-1.53c0.129-0.058,0.217-0.187,0.217-0.331c0-0.142-0.088-0.272-0.217-0.329l-3.515-1.536   c-0.156-0.069-0.345-0.016-0.443,0.129c-0.098,0.144-0.077,0.316,0.044,0.439l0.862,0.821h-14.66l-1.614-0.904   c-0.04-0.022-0.086-0.008-0.134-0.008h-2.101c-0.121,0-0.226,0.072-0.258,0.188c-0.029,0.117,0.021,0.235,0.125,0.296l1.57,0.903   l-1.568,0.901c-0.106,0.059-0.156,0.199-0.127,0.315c0.031,0.119,0.137,0.215,0.258,0.215h2.101c0.047,0,0.094-0.026,0.134-0.049   l1.622-0.946h14.652l-0.862,0.836C56.69,35.575,56.67,35.765,56.768,35.91z M43.975,54.024h2.405c0.253,0,0.456-0.201,0.456-0.456   c0-0.253-0.203-0.454-0.456-0.454h-2.405c-0.252,0-0.456,0.201-0.456,0.454C43.519,53.823,43.723,54.024,43.975,54.024z    M68.988,38.408c-3.71,1.046-8.561,2.018-13.638,2.43c0,0-2.396,0.062-3.047,2.699c0,0-0.867,0.431-2.275,0.431h-0.018   c-1.407,0-2.274-0.431-2.274-0.431c-0.652-2.636-3.047-2.699-3.047-2.699c-5.082-0.413-10.057-1.383-13.767-2.43   c-0.869-0.246-2.34-0.207-2.543,1.515c-0.204,1.725,0.753,5.5,0.753,5.5c5.104,2.056,12.364,3.353,20.731,3.353h0.183   c8.365,0,15.629-1.297,20.734-3.353c0,0,0.956-3.775,0.751-5.5C71.327,38.201,69.856,38.162,68.988,38.408z M29.873,44.573   c-0.083-0.005-0.083-0.012-0.083-0.019v-0.891c0,0.006,0,0.014,0.083,0.021V44.573z M30.372,44.685   c-0.083-0.006-0.083-0.013-0.083-0.02v-0.887c0,0.004,0,0.011,0.083,0.018V44.685z M30.952,44.81   c-0.083-0.013-0.165-0.022-0.165-0.035v-0.888c0,0.013,0.082,0.025,0.165,0.037V44.81z M31.615,44.95   c-0.083-0.018-0.166-0.034-0.249-0.052v-0.886c0.083,0.018,0.166,0.034,0.249,0.052V44.95z M32.279,45.082   c-0.083-0.017-0.165-0.032-0.249-0.049v-0.884c0.084,0.018,0.166,0.033,0.249,0.05V45.082z M33.025,45.226   c-0.165-0.021-0.248-0.042-0.331-0.063V44.28c0.083,0.021,0.166,0.042,0.331,0.064V45.226z M33.854,45.376   c-0.166-0.023-0.331-0.05-0.414-0.074v-0.881c0.083,0.023,0.248,0.051,0.414,0.075V45.376z M34.686,45.522   c-0.167-0.025-0.332-0.048-0.415-0.071v-0.88c0.083,0.023,0.248,0.046,0.415,0.072V45.522z M35.598,45.672   c-0.166-0.026-0.334-0.053-0.498-0.08v-0.879c0.164,0.028,0.332,0.056,0.498,0.082V45.672z M36.593,45.826   c-0.25-0.028-0.415-0.06-0.582-0.088v-0.878c0.167,0.03,0.332,0.061,0.582,0.09V45.826z M37.672,45.979   c-0.25-0.029-0.498-0.061-0.663-0.092v-0.877c0.165,0.032,0.413,0.063,0.663,0.095V45.979z M38.832,46.134   c-0.249-0.031-0.498-0.064-0.746-0.098v-0.875c0.249,0.033,0.498,0.066,0.746,0.099V46.134z M40.077,46.282   c-0.333-0.032-0.581-0.064-0.829-0.098v-0.872c0.249,0.032,0.497,0.064,0.829,0.097V46.282z M41.487,46.431   c-0.333-0.033-0.664-0.067-0.996-0.102v-0.873c0.333,0.037,0.664,0.072,0.996,0.104V46.431z M42.98,46.563   c-0.416-0.028-0.747-0.06-1.08-0.095v-0.87c0.333,0.034,0.664,0.065,1.08,0.096V46.563z M44.555,46.681   c-0.415-0.026-0.829-0.054-1.162-0.083v-0.869c0.333,0.03,0.747,0.058,1.162,0.083V46.681z M46.214,46.77   c-0.414-0.02-0.829-0.042-1.244-0.065v-0.867c0.415,0.023,0.83,0.046,1.244,0.065V46.77z M47.956,46.834   c-0.498-0.013-0.912-0.026-1.326-0.045v-0.866c0.414,0.017,0.828,0.031,1.326,0.043V46.834z M49.78,46.858   c-0.499,0-0.995-0.005-1.41-0.016v-0.867c0.415,0.008,0.911,0.014,1.41,0.017V46.858z M51.606,46.845   c-0.502,0.009-0.997,0.014-1.41,0.015v-0.867c0.413-0.001,0.908-0.007,1.41-0.016V46.845z M53.348,46.793   c-0.497,0.018-0.911,0.03-1.328,0.042v-0.867c0.417-0.012,0.831-0.026,1.328-0.042V46.793z M55.007,46.711   c-0.416,0.023-0.831,0.046-1.245,0.063v-0.868c0.414-0.018,0.829-0.041,1.245-0.064V46.711z M56.581,46.604   c-0.414,0.03-0.826,0.057-1.16,0.08v-0.867c0.334-0.024,0.746-0.054,1.16-0.082V46.604z M58.074,46.479   c-0.414,0.032-0.743,0.064-1.078,0.094v-0.87c0.335-0.03,0.666-0.061,1.078-0.094V46.479z M59.484,46.337   c-0.331,0.036-0.662,0.069-0.996,0.101v-0.87c0.334-0.032,0.665-0.068,0.996-0.103V46.337z M60.729,46.196   c-0.331,0.032-0.58,0.064-0.831,0.096V45.42c0.251-0.03,0.5-0.062,0.831-0.098V46.196z M61.892,46.048   c-0.249,0.032-0.501,0.064-0.747,0.096v-0.872c0.247-0.033,0.5-0.064,0.747-0.098V46.048z M62.968,45.899   c-0.248,0.032-0.496,0.062-0.663,0.094v-0.875c0.167-0.03,0.415-0.062,0.663-0.095V45.899z M63.964,45.751   c-0.248,0.029-0.413,0.059-0.579,0.089v-0.876c0.166-0.03,0.331-0.06,0.579-0.089V45.751z M64.878,45.604   c-0.168,0.027-0.332,0.055-0.5,0.082v-0.878c0.168-0.026,0.332-0.054,0.5-0.082V45.604z M65.705,45.466   c-0.165,0.024-0.331,0.047-0.414,0.071v-0.879c0.083-0.025,0.249-0.048,0.414-0.072V45.466z M66.535,45.318   c-0.166,0.024-0.331,0.049-0.413,0.075v-0.88c0.082-0.026,0.247-0.05,0.413-0.075V45.318z M67.279,45.18   c-0.165,0.019-0.246,0.041-0.331,0.062v-0.882c0.085-0.021,0.166-0.043,0.331-0.062V45.18z M67.946,45.05   c-0.082,0.017-0.166,0.033-0.249,0.049v-0.883c0.083-0.018,0.167-0.034,0.249-0.049V45.05z M68.609,44.915   c-0.083,0.018-0.168,0.035-0.251,0.053v-0.886c0.083-0.018,0.168-0.035,0.251-0.051V44.915z M69.19,44.793   c-0.083,0.012-0.165,0.022-0.165,0.036v-0.886c0-0.013,0.082-0.025,0.165-0.036V44.793z M69.687,44.686   c-0.083,0.006-0.083,0.013-0.083,0.019v-0.888c0-0.007,0-0.013,0.083-0.02V44.686z M70.184,44.573   c-0.083,0.007-0.083,0.013-0.083,0.02v-0.89c0-0.007,0-0.013,0.083-0.019V44.573z M59.898,54.107H49.035   c-0.253,0-0.458,0.205-0.458,0.457s0.205,0.458,0.458,0.458h10.863c0.254,0,0.457-0.206,0.457-0.458S60.152,54.107,59.898,54.107z    M45.137,26.57v3.732h9.787V26.57H45.137z M51.728,38.298h-3.376c-0.128,0-0.243,0.066-0.309,0.173   c-0.065,0.107-0.07,0.24-0.012,0.352l1.644,3.196c0.062,0.12,0.231,0.201,0.32,0.194c0.132,0,0.253-0.071,0.318-0.187l1.735-3.197   c0.058-0.11,0.054-0.246-0.009-0.355C51.974,38.365,51.856,38.298,51.728,38.298z M41.816,53.197h-7.216   c-0.229,0-0.415,0.186-0.415,0.414v1.908c0,0.23,0.186,0.413,0.415,0.413h7.216c0.23,0,0.416-0.182,0.416-0.413V53.61   C42.232,53.383,42.048,53.197,41.816,53.197z M46.754,55.479c0-0.253-0.204-0.457-0.457-0.457h-2.322   c-0.252,0-0.456,0.204-0.456,0.457c0,0.252,0.204,0.454,0.456,0.454h2.322C46.55,55.933,46.754,55.73,46.754,55.479z"/></g><text x="0" y="115" fill="#000000" font-size="5px" font-weight="bold" font-family="'Helvetica Neue', Helvetica, Arial-Unicode, Arial, Sans-serif">Created by Olivier Guin</text><text x="0" y="120" fill="#000000" font-size="5px" font-weight="bold" font-family="'Helvetica Neue', Helvetica, Arial-Unicode, Arial, Sans-serif">from the Noun Project</text></svg>